<svg width="16" height="16" viewBox="0 0 16 16" fill="none" xmlns="http://www.w3.org/2000/svg">
<path d="M12.8536 4.35355C13.0488 4.15829 13.0488 3.84171 12.8536 3.64645C12.6583 3.45118 12.3417 3.45118 12.1464 3.64645L8 7.79289L3.85355 3.64645C3.65829 3.45118 3.34171 3.45118 3.14645 3.64645C2.95118 3.84171 2.95118 4.15829 3.14645 4.35355L7.29289 8L3.14645 11.6464C2.95118 11.8417 2.95118 12.1583 3.14645 12.3536C3.34171 12.5488 3.65829 12.5488 3.85355 12.3536L8 8.20711L12.1464 12.3536C12.3417 12.5488 12.6583 12.5488 12.8536 12.3536C13.0488 12.1583 13.0488 11.8417 12.8536 11.6464L8.70711 8L12.8536 4.35355Z" fill="#1C1C1C"/>
</svg>
